<svg xmlns="http://www.w3.org/2000/svg" viewBox="0 0 128 128">
<defs><linearGradient id="g" x1="0%" y1="0%" x2="100%" y2="100%"><stop offset="0%" stop-color="#f0abfc"/><stop offset="100%" stop-color="#a855f7"/></linearGradient></defs>
<rect width="128" height="128" rx="24" fill="#0a0e1a"/>
<g transform="translate(64,48)" stroke="url(#g)" fill="none" stroke-width="2" stroke-linecap="round">
<rect x="-26" y="-24" width="52" height="40" rx="4"/>
<line x1="-26" y1="-16" x2="26" y2="-16" stroke-width="1"/>
<circle cx="-20" cy="-20" r="2" fill="#f87171" opacity="0.7"/>
<circle cx="-14" cy="-20" r="2" fill="#fbbf24" opacity="0.7"/>
<circle cx="-8" cy="-20" r="2" fill="#34d399" opacity="0.7"/>
<rect x="-20" y="-10" width="16" height="12" rx="2" stroke-width="1.5"/>
<path d="M-12 -4 L-8 0 L-16 0 Z" fill="url(#g)" opacity="0.4"/>
<rect x="2" y="-10" width="20" height="3" rx="1" fill="url(#g)" opacity="0.3"/>
<rect x="2" y="-4" width="16" height="3" rx="1" fill="url(#g)" opacity="0.2"/>
<rect x="2" y="2" width="12" height="3" rx="1" fill="url(#g)" opacity="0.15"/>
<rect x="-14" y="20" width="28" height="6" rx="3"/>
</g>
<text x="64" y="108" text-anchor="middle" fill="#a855f7" font-family="sans-serif" font-size="11" font-weight="700">EoStudio</text>
</svg>
